<?xml version="1.0" encoding="iso-8859-1"?>
<!-- Generator: Adobe Illustrator 19.0.0, SVG Export Plug-In . SVG Version: 6.00 Build 0)  -->
<svg version="1.1" id="Capa_1" xmlns="http://www.w3.org/2000/svg" xmlns:xlink="http://www.w3.org/1999/xlink" x="0px" y="0px"
	 viewBox="0 0 421.669 421.669" style="enable-background:new 0 0 421.669 421.669;" xml:space="preserve">
<polygon style="fill:#EA3457;" points="316.651,203.215 105.024,203.215 36.758,291.962 384.918,291.962 "/>
<path style="fill:#602F75;" d="M384.918,298.789H36.758c-2.601,0-4.973-1.481-6.127-3.813c-1.147-2.335-0.874-5.113,0.713-7.175
	l68.267-88.747c1.294-1.679,3.294-2.666,5.414-2.666h211.627c2.12,0,4.12,0.986,5.414,2.666l68.267,88.747
	c1.587,2.062,1.86,4.84,0.713,7.175C389.891,297.307,387.519,298.789,384.918,298.789z M50.623,285.135h320.427l-57.76-75.093
	H108.383L50.623,285.135z"/>
<rect x="118.678" y="155.429" style="fill:#FFFFFF;" width="177.493" height="232.107"/>
<path style="fill:#602F75;" d="M296.171,394.362H118.678c-3.772,0-6.827-3.055-6.827-6.827V155.429c0-3.772,3.055-6.827,6.827-6.827
	h177.493c3.772,0,6.827,3.055,6.827,6.827v232.107C302.998,391.307,299.943,394.362,296.171,394.362z M125.504,380.709h163.84
	V162.255h-163.84V380.709z"/>
<rect x="29.931" y="387.542" style="fill:#EAEAEA;" width="354.987" height="27.307"/>
<path style="fill:#602F75;" d="M384.918,421.669H29.931c-3.772,0-6.827-3.055-6.827-6.827v-27.307c0-3.772,3.055-6.827,6.827-6.827
	h354.987c3.772,0,6.827,3.055,6.827,6.827v27.307C391.744,418.614,388.69,421.669,384.918,421.669z M36.758,408.015h341.333v-13.653
	H36.758V408.015z"/>
<g>
	<g>
		<path style="fill:#FFE600;" d="M161.682,1.487l7.39,22.746c0.287,0.887,1.113,1.485,2.045,1.485h23.917
			c2.082,0,2.949,2.666,1.263,3.891l-19.35,14.06c-0.754,0.546-1.068,1.519-0.782,2.406l7.39,22.746
			c0.645,1.983-1.625,3.628-3.311,2.406l-19.35-14.06c-0.754-0.546-1.775-0.546-2.529,0l-19.34,14.06
			c-1.686,1.225-3.953-0.423-3.311-2.406l7.39-22.746c0.287-0.887-0.027-1.857-0.782-2.406l-19.35-14.06
			c-1.686-1.225-0.819-3.891,1.263-3.891h23.917c0.932,0,1.758-0.601,2.045-1.485l7.39-22.746
			C158.235-0.496,161.041-0.496,161.682,1.487z"/>
		<path style="fill:#FFE600;" d="M59.282,1.487l7.39,22.746c0.287,0.887,1.113,1.485,2.045,1.485h23.917
			c2.082,0,2.949,2.666,1.263,3.891l-19.35,14.06c-0.754,0.546-1.068,1.519-0.782,2.406l7.39,22.746
			c0.645,1.983-1.625,3.628-3.311,2.406l-19.35-14.06c-0.754-0.546-1.775-0.546-2.529,0l-19.34,14.06
			c-1.686,1.225-3.953-0.423-3.311-2.406l7.39-22.746c0.287-0.887-0.027-1.857-0.782-2.406l-19.35-14.06
			c-1.686-1.225-0.819-3.891,1.263-3.891h23.917c0.932,0,1.758-0.601,2.045-1.485l7.39-22.746
			C55.835-0.496,58.641-0.496,59.282,1.487z"/>
		<path style="fill:#FFE600;" d="M264.082,1.487l7.39,22.746c0.287,0.887,1.113,1.485,2.045,1.485h23.917
			c2.082,0,2.949,2.666,1.263,3.891l-19.35,14.06c-0.754,0.546-1.068,1.519-0.782,2.406l7.39,22.746
			c0.645,1.983-1.625,3.628-3.311,2.406l-19.35-14.06c-0.754-0.546-1.775-0.546-2.529,0l-19.34,14.06
			c-1.686,1.225-3.953-0.423-3.311-2.406l7.39-22.746c0.287-0.887-0.027-1.857-0.782-2.406l-19.35-14.06
			c-1.686-1.225-0.819-3.891,1.263-3.891h23.917c0.932,0,1.758-0.601,2.045-1.485l7.39-22.746
			C260.635-0.496,263.441-0.496,264.082,1.487z"/>
		<path style="fill:#FFE600;" d="M366.482,1.487l7.39,22.746c0.287,0.887,1.113,1.485,2.045,1.485h23.917
			c2.082,0,2.949,2.666,1.263,3.891l-19.35,14.06c-0.754,0.546-1.068,1.519-0.782,2.406l7.39,22.746
			c0.645,1.983-1.625,3.628-3.311,2.406l-19.35-14.06c-0.754-0.546-1.775-0.546-2.529,0l-19.35,14.06
			c-1.686,1.225-3.953-0.423-3.311-2.406l7.39-22.746c0.287-0.887-0.027-1.857-0.782-2.406l-19.35-14.06
			c-1.686-1.225-0.819-3.891,1.263-3.891h23.917c0.932,0,1.758-0.601,2.045-1.485l7.39-22.746
			C363.035-0.496,365.841-0.496,366.482,1.487z"/>
	</g>
	<polygon style="fill:#EA3457;" points="208.25,80.335 120.326,155.429 296.171,155.429 	"/>
</g>
<path style="fill:#602F75;" d="M296.171,162.255H120.323c-2.86,0-5.414-1.778-6.407-4.468c-0.986-2.679-0.201-5.693,1.973-7.554
	l87.927-75.093c2.546-2.174,6.321-2.174,8.868,0l87.921,75.093c2.174,1.86,2.959,4.874,1.973,7.554
	C301.585,160.474,299.031,162.255,296.171,162.255z M138.83,148.602h138.834l-69.414-59.29L138.83,148.602z"/>
<rect x="145.984" y="244.182" style="fill:#00E7FF;" width="27.307" height="47.787"/>
<path style="fill:#602F75;" d="M173.291,298.789h-27.307c-3.772,0-6.827-3.055-6.827-6.827v-47.787c0-3.772,3.055-6.827,6.827-6.827
	h27.307c3.772,0,6.827,3.055,6.827,6.827v47.787C180.118,295.734,177.063,298.789,173.291,298.789z M152.811,285.135h13.653v-34.133
	h-13.653V285.135z"/>
<rect x="193.771" y="244.182" style="fill:#00E7FF;" width="27.307" height="47.787"/>
<path style="fill:#602F75;" d="M221.078,298.789h-27.307c-3.772,0-6.827-3.055-6.827-6.827v-47.787c0-3.772,3.055-6.827,6.827-6.827
	h27.307c3.772,0,6.827,3.055,6.827,6.827v47.787C227.904,295.734,224.85,298.789,221.078,298.789z M200.598,285.135h13.653v-34.133
	h-13.653V285.135z"/>
<rect x="241.558" y="244.182" style="fill:#00E7FF;" width="27.307" height="47.787"/>
<path style="fill:#602F75;" d="M268.864,298.789h-27.307c-3.772,0-6.827-3.055-6.827-6.827v-47.787c0-3.772,3.055-6.827,6.827-6.827
	h27.307c3.772,0,6.827,3.055,6.827,6.827v47.787C275.691,295.734,272.636,298.789,268.864,298.789z M248.384,285.135h13.653v-34.133
	h-13.653V285.135z"/>
<rect x="145.984" y="175.909" style="fill:#FFE600;" width="27.307" height="47.787"/>
<path style="fill:#602F75;" d="M173.291,230.522h-27.307c-3.772,0-6.827-3.055-6.827-6.827v-47.787c0-3.772,3.055-6.827,6.827-6.827
	h27.307c3.772,0,6.827,3.055,6.827,6.827v47.787C180.118,227.467,177.063,230.522,173.291,230.522z M152.811,216.869h13.653v-34.133
	h-13.653V216.869z"/>
<rect x="193.771" y="175.909" style="fill:#00E7FF;" width="27.307" height="47.787"/>
<path style="fill:#602F75;" d="M221.078,230.522h-27.307c-3.772,0-6.827-3.055-6.827-6.827v-47.787c0-3.772,3.055-6.827,6.827-6.827
	h27.307c3.772,0,6.827,3.055,6.827,6.827v47.787C227.904,227.467,224.85,230.522,221.078,230.522z M200.598,216.869h13.653v-34.133
	h-13.653V216.869z"/>
<rect x="241.558" y="175.909" style="fill:#00E7FF;" width="27.307" height="47.787"/>
<path style="fill:#602F75;" d="M268.864,230.522h-27.307c-3.772,0-6.827-3.055-6.827-6.827v-47.787c0-3.772,3.055-6.827,6.827-6.827
	h27.307c3.772,0,6.827,3.055,6.827,6.827v47.787C275.691,227.467,272.636,230.522,268.864,230.522z M248.384,216.869h13.653v-34.133
	h-13.653V216.869z"/>
<rect x="145.984" y="312.449" style="fill:#00E7FF;" width="27.307" height="47.787"/>
<path style="fill:#602F75;" d="M173.291,367.055h-27.307c-3.772,0-6.827-3.055-6.827-6.827v-47.787c0-3.772,3.055-6.827,6.827-6.827
	h27.307c3.772,0,6.827,3.055,6.827,6.827v47.787C180.118,364,177.063,367.055,173.291,367.055z M152.811,353.402h13.653v-34.133
	h-13.653V353.402z"/>
<rect x="193.771" y="312.449" style="fill:#FFE600;" width="27.307" height="47.787"/>
<path style="fill:#602F75;" d="M221.078,367.055h-27.307c-3.772,0-6.827-3.055-6.827-6.827v-47.787c0-3.772,3.055-6.827,6.827-6.827
	h27.307c3.772,0,6.827,3.055,6.827,6.827v47.787C227.904,364,224.85,367.055,221.078,367.055z M200.598,353.402h13.653v-34.133
	h-13.653V353.402z"/>
<rect x="241.558" y="312.449" style="fill:#00E7FF;" width="27.307" height="47.787"/>
<path style="fill:#602F75;" d="M268.864,367.055h-27.307c-3.772,0-6.827-3.055-6.827-6.827v-47.787c0-3.772,3.055-6.827,6.827-6.827
	h27.307c3.772,0,6.827,3.055,6.827,6.827v47.787C275.691,364,272.636,367.055,268.864,367.055z M248.384,353.402h13.653v-34.133
	h-13.653V353.402z"/>
<rect x="296.171" y="291.969" style="fill:#FFFFFF;" width="68.267" height="95.573"/>
<path style="fill:#602F75;" d="M364.438,394.362h-68.267c-3.772,0-6.827-3.055-6.827-6.827v-95.573c0-3.772,3.055-6.827,6.827-6.827
	h68.267c3.772,0,6.827,3.055,6.827,6.827v95.573C371.264,391.307,368.21,394.362,364.438,394.362z M302.998,380.709h54.613v-81.92
	h-54.613V380.709z"/>
<rect x="316.651" y="312.449" style="fill:#00E7FF;" width="27.307" height="47.787"/>
<path style="fill:#602F75;" d="M343.958,367.055h-27.307c-3.772,0-6.827-3.055-6.827-6.827v-47.787c0-3.772,3.055-6.827,6.827-6.827
	h27.307c3.772,0,6.827,3.055,6.827,6.827v47.787C350.784,364,347.73,367.055,343.958,367.055z M323.478,353.402h13.653v-34.133
	h-13.653V353.402z"/>
<rect x="50.411" y="291.969" style="fill:#FFFFFF;" width="68.267" height="95.573"/>
<path style="fill:#602F75;" d="M118.678,394.362H50.411c-3.772,0-6.827-3.055-6.827-6.827v-95.573c0-3.772,3.055-6.827,6.827-6.827
	h68.267c3.772,0,6.827,3.055,6.827,6.827v95.573C125.504,391.307,122.45,394.362,118.678,394.362z M57.238,380.709h54.613v-81.92
	H57.238V380.709z"/>
<rect x="70.891" y="312.449" style="fill:#00E7FF;" width="27.307" height="47.787"/>
<path style="fill:#602F75;" d="M98.198,367.055H70.891c-3.772,0-6.827-3.055-6.827-6.827v-47.787c0-3.772,3.055-6.827,6.827-6.827
	h27.307c3.772,0,6.827,3.055,6.827,6.827v47.787C105.024,364,101.97,367.055,98.198,367.055z M77.718,353.402h13.653v-34.133H77.718
	V353.402z"/>
<g>
</g>
<g>
</g>
<g>
</g>
<g>
</g>
<g>
</g>
<g>
</g>
<g>
</g>
<g>
</g>
<g>
</g>
<g>
</g>
<g>
</g>
<g>
</g>
<g>
</g>
<g>
</g>
<g>
</g>
</svg>
