<?xml version="1.0" encoding="iso-8859-1"?>
<!-- Generator: Adobe Illustrator 19.0.0, SVG Export Plug-In . SVG Version: 6.00 Build 0)  -->
<svg version="1.1" id="Capa_1" xmlns="http://www.w3.org/2000/svg" xmlns:xlink="http://www.w3.org/1999/xlink" x="0px" y="0px"
	 viewBox="0 0 368.642 368.642" style="enable-background:new 0 0 368.642 368.642;" xml:space="preserve">
<polygon style="fill:#EA3457;" points="293.547,149.395 81.92,149.395 13.653,238.142 361.813,238.142 "/>
<path style="fill:#602F75;" d="M361.813,244.969H13.653c-2.601,0-4.973-1.481-6.127-3.813c-1.147-2.335-0.874-5.113,0.713-7.175
	l68.267-88.747c1.294-1.679,3.294-2.666,5.414-2.666h211.627c2.12,0,4.12,0.986,5.414,2.666l68.267,88.747
	c1.587,2.062,1.86,4.84,0.713,7.175C366.787,243.487,364.411,244.969,361.813,244.969z M27.518,231.315h320.427l-57.76-75.093
	H85.279L27.518,231.315z"/>
<rect x="95.573" y="169.882" style="fill:#FFFFFF;" width="177.493" height="163.84"/>
<path style="fill:#602F75;" d="M273.067,340.542H95.573c-3.772,0-6.827-3.055-6.827-6.827v-163.84c0-3.772,3.055-6.827,6.827-6.827
	h177.493c3.772,0,6.827,3.055,6.827,6.827v163.84C279.893,337.487,276.838,340.542,273.067,340.542z M102.4,326.889h163.84V176.702
	H102.4V326.889z"/>
<rect x="6.827" y="333.722" style="fill:#EAEAEA;" width="354.987" height="27.307"/>
<path style="fill:#602F75;" d="M361.813,367.849H6.827c-3.772,0-6.827-3.055-6.827-6.827v-27.307c0-3.772,3.055-6.827,6.827-6.827
	h354.987c3.772,0,6.827,3.055,6.827,6.827v27.307C368.64,364.794,365.585,367.849,361.813,367.849z M13.653,354.195h341.333v-13.653
	H13.653V354.195z"/>
<g>
	<g>
		<path style="fill:#FFE600;" d="M186.365,2.281l7.39,22.746c0.287,0.887,1.113,1.485,2.045,1.485h23.917
			c2.082,0,2.949,2.666,1.263,3.891l-19.35,14.06c-0.754,0.546-1.068,1.519-0.782,2.406l7.39,22.746
			c0.645,1.983-1.625,3.628-3.311,2.406l-19.35-14.06c-0.754-0.546-1.775-0.546-2.529,0l-19.343,14.06
			c-1.686,1.225-3.953-0.423-3.311-2.406l7.39-22.746c0.287-0.887-0.027-1.857-0.782-2.406l-19.35-14.06
			c-1.686-1.225-0.819-3.891,1.263-3.891h23.917c0.932,0,1.758-0.601,2.045-1.485l7.39-22.746
			C182.917,0.298,185.719,0.298,186.365,2.281z"/>
		<path style="fill:#FFE600;" d="M83.965,2.281l7.39,22.746c0.287,0.887,1.113,1.485,2.045,1.485h23.917
			c2.082,0,2.949,2.666,1.263,3.891l-19.35,14.06c-0.754,0.546-1.068,1.519-0.782,2.406l7.39,22.746
			c0.645,1.983-1.625,3.628-3.311,2.406l-19.35-14.06c-0.754-0.546-1.775-0.546-2.529,0l-19.343,14.06
			c-1.686,1.225-3.953-0.423-3.311-2.406l7.39-22.746c0.287-0.887-0.027-1.857-0.782-2.406l-19.35-14.06
			c-1.686-1.225-0.819-3.891,1.263-3.891h23.917c0.932,0,1.758-0.601,2.045-1.485l7.39-22.746
			C80.517,0.298,83.319,0.298,83.965,2.281z"/>
		<path style="fill:#FFE600;" d="M288.765,2.281l7.39,22.746c0.287,0.887,1.113,1.485,2.045,1.485h23.917
			c2.082,0,2.949,2.666,1.263,3.891l-19.35,14.06c-0.754,0.546-1.068,1.519-0.782,2.406l7.39,22.746
			c0.645,1.983-1.625,3.628-3.311,2.406l-19.35-14.06c-0.754-0.546-1.775-0.546-2.529,0l-19.343,14.06
			c-1.686,1.225-3.953-0.423-3.311-2.406l7.39-22.746c0.287-0.887-0.027-1.857-0.782-2.406l-19.35-14.06
			c-1.686-1.225-0.819-3.891,1.263-3.891h23.917c0.932,0,1.758-0.601,2.045-1.485l7.39-22.746
			C285.317,0.298,288.119,0.298,288.765,2.281z"/>
	</g>
	<polygon style="fill:#EA3457;" points="185.143,94.782 97.222,169.875 273.067,169.875 	"/>
</g>
<path style="fill:#602F75;" d="M273.067,176.702H97.219c-2.86,0-5.414-1.778-6.407-4.468c-0.986-2.679-0.201-5.693,1.973-7.554
	l87.927-75.093c2.546-2.174,6.321-2.174,8.868,0l87.921,75.093c2.174,1.86,2.959,4.874,1.973,7.554
	C278.48,174.92,275.927,176.702,273.067,176.702z M115.726,163.049H254.56l-69.414-59.29L115.726,163.049z"/>
<rect x="122.88" y="190.362" style="fill:#00E7FF;" width="27.307" height="47.787"/>
<path style="fill:#602F75;" d="M150.187,244.969H122.88c-3.772,0-6.827-3.055-6.827-6.827v-47.787c0-3.772,3.055-6.827,6.827-6.827
	h27.307c3.772,0,6.827,3.055,6.827,6.827v47.787C157.013,241.914,153.958,244.969,150.187,244.969z M129.707,231.315h13.653v-34.133
	h-13.653V231.315z"/>
<rect x="170.667" y="190.362" style="fill:#00E7FF;" width="27.307" height="47.787"/>
<path style="fill:#602F75;" d="M197.973,244.969h-27.307c-3.772,0-6.827-3.055-6.827-6.827v-47.787c0-3.772,3.055-6.827,6.827-6.827
	h27.307c3.772,0,6.827,3.055,6.827,6.827v47.787C204.8,241.914,201.745,244.969,197.973,244.969z M177.493,231.315h13.653v-34.133
	h-13.653V231.315z"/>
<rect x="218.453" y="190.362" style="fill:#FFE600;" width="27.307" height="47.787"/>
<path style="fill:#602F75;" d="M245.76,244.969h-27.307c-3.772,0-6.827-3.055-6.827-6.827v-47.787c0-3.772,3.055-6.827,6.827-6.827
	h27.307c3.772,0,6.827,3.055,6.827,6.827v47.787C252.587,241.914,249.532,244.969,245.76,244.969z M225.28,231.315h13.653v-34.133
	H225.28V231.315z"/>
<rect x="122.88" y="258.629" style="fill:#00E7FF;" width="27.307" height="47.787"/>
<path style="fill:#602F75;" d="M150.187,313.235H122.88c-3.772,0-6.827-3.055-6.827-6.827v-47.787c0-3.772,3.055-6.827,6.827-6.827
	h27.307c3.772,0,6.827,3.055,6.827,6.827v47.787C157.013,310.18,153.958,313.235,150.187,313.235z M129.707,299.582h13.653v-34.133
	h-13.653V299.582z"/>
<rect x="170.667" y="258.629" style="fill:#FFE600;" width="27.307" height="47.787"/>
<path style="fill:#602F75;" d="M197.973,313.235h-27.307c-3.772,0-6.827-3.055-6.827-6.827v-47.787c0-3.772,3.055-6.827,6.827-6.827
	h27.307c3.772,0,6.827,3.055,6.827,6.827v47.787C204.8,310.18,201.745,313.235,197.973,313.235z M177.493,299.582h13.653v-34.133
	h-13.653V299.582z"/>
<rect x="218.453" y="258.629" style="fill:#00E7FF;" width="27.307" height="47.787"/>
<path style="fill:#602F75;" d="M245.76,313.235h-27.307c-3.772,0-6.827-3.055-6.827-6.827v-47.787c0-3.772,3.055-6.827,6.827-6.827
	h27.307c3.772,0,6.827,3.055,6.827,6.827v47.787C252.587,310.18,249.532,313.235,245.76,313.235z M225.28,299.582h13.653v-34.133
	H225.28V299.582z"/>
<rect x="273.067" y="238.149" style="fill:#FFFFFF;" width="68.267" height="95.573"/>
<path style="fill:#602F75;" d="M341.333,340.542h-68.267c-3.772,0-6.827-3.055-6.827-6.827v-95.573c0-3.772,3.055-6.827,6.827-6.827
	h68.267c3.772,0,6.827,3.055,6.827,6.827v95.573C348.16,337.487,345.105,340.542,341.333,340.542z M279.893,326.889h54.613v-81.92
	h-54.613V326.889z"/>
<rect x="293.547" y="258.629" style="fill:#00E7FF;" width="27.307" height="47.787"/>
<path style="fill:#602F75;" d="M320.853,313.235h-27.307c-3.772,0-6.827-3.055-6.827-6.827v-47.787c0-3.772,3.055-6.827,6.827-6.827
	h27.307c3.772,0,6.827,3.055,6.827,6.827v47.787C327.68,310.18,324.625,313.235,320.853,313.235z M300.373,299.582h13.653v-34.133
	h-13.653V299.582z"/>
<rect x="27.307" y="238.149" style="fill:#FFFFFF;" width="68.267" height="95.573"/>
<path style="fill:#602F75;" d="M95.573,340.542H27.307c-3.772,0-6.827-3.055-6.827-6.827v-95.573c0-3.772,3.055-6.827,6.827-6.827
	h68.267c3.772,0,6.827,3.055,6.827,6.827v95.573C102.4,337.487,99.345,340.542,95.573,340.542z M34.133,326.889h54.613v-81.92
	H34.133V326.889z"/>
<rect x="47.787" y="258.629" style="fill:#00E7FF;" width="27.307" height="47.787"/>
<path style="fill:#602F75;" d="M75.093,313.235H47.787c-3.772,0-6.827-3.055-6.827-6.827v-47.787c0-3.772,3.055-6.827,6.827-6.827
	h27.307c3.772,0,6.827,3.055,6.827,6.827v47.787C81.92,310.18,78.865,313.235,75.093,313.235z M54.613,299.582h13.653v-34.133
	H54.613V299.582z"/>
<g>
</g>
<g>
</g>
<g>
</g>
<g>
</g>
<g>
</g>
<g>
</g>
<g>
</g>
<g>
</g>
<g>
</g>
<g>
</g>
<g>
</g>
<g>
</g>
<g>
</g>
<g>
</g>
<g>
</g>
</svg>
